<svg xmlns="http://www.w3.org/2000/svg" viewBox="0 0 35.03 40" width="35.03px" height="40px" fill="#fff"><g id="Calque_2" data-name="Calque 2"><g id="logo"><polygon points="35.03 9.9 17.54 0 13.13 2.48 30.44 12.49 30.44 22.57 20.34 27.93 20.34 18.21 2.72 8.35 0 9.89 0 9.89 0 9.89 0 9.89 0 30.11 4.29 32.57 4.29 16.61 7.71 18.56 7.71 34.41 11.27 36.34 11.27 20.58 14.7 22.52 14.7 38.33 17.57 40 17.57 40 17.57 40 17.57 40 17.57 40 20.34 38.51 20.34 33.72 35.02 25.93 35.03 9.9"/><polygon points="20.99 10.25 10.3 4.1 6.41 6.29 16.96 12.49 20.99 10.25"/></g></g></svg>